<svg width="60" height="60" viewBox="0 0 60 60" fill="none" xmlns="http://www.w3.org/2000/svg">
<g clip-path="url(#clip0_117_1954)">
<path d="M59.9879 22.9372C59.9817 22.8682 59.968 22.8001 59.9469 22.7342C59.9332 22.6752 59.9141 22.6176 59.89 22.5621C59.8619 22.5079 59.8284 22.4566 59.79 22.4091C59.7514 22.3527 59.7068 22.3008 59.657 22.254C59.6409 22.2401 59.634 22.221 59.617 22.207L49.9995 14.7377V6.99639C49.9995 5.33951 48.6563 3.99624 46.9994 3.99624H36.1618L31.8225 0.627044C31.3015 0.220691 30.6596 0 29.9989 0C29.3381 0 28.6963 0.220691 28.1753 0.627044L23.835 3.99624H12.9975C11.3406 3.99624 9.9973 5.33939 9.9973 6.99639V14.7378L0.382871 22.2072C0.365878 22.2212 0.358846 22.2402 0.342908 22.2542C0.293058 22.3008 0.248456 22.3528 0.209893 22.4092C0.171421 22.4567 0.137923 22.508 0.109927 22.5623C0.0857052 22.6177 0.0666395 22.6753 0.0529714 22.7343C0.0321337 22.7993 0.0183813 22.8664 0.0119537 22.9343C0.0119537 22.9553 0 22.9734 0 22.9944V56.9988C0.00138582 57.6349 0.20718 58.2537 0.587022 58.7639C0.592999 58.7729 0.594054 58.7839 0.600968 58.7919C0.608 58.7999 0.623 58.8089 0.632962 58.8199C0.910148 59.1847 1.26756 59.4807 1.67752 59.6852C2.08748 59.8897 2.53899 59.997 2.99711 59.999H56.9998C57.4597 59.9976 57.913 59.89 58.3245 59.6847C58.736 59.4793 59.0944 59.1817 59.372 58.815C59.3799 58.805 59.392 58.802 59.3989 58.792C59.4059 58.7821 59.4069 58.773 59.413 58.764C59.7928 58.2538 59.9986 57.635 60 56.999V22.9972C59.9999 22.9762 59.989 22.9581 59.9879 22.9372ZM29.3983 2.20505C29.5679 2.07028 29.7782 1.99692 29.9948 1.99692C30.2115 1.99692 30.4217 2.07028 30.5914 2.20505L32.8984 3.99612H27.0982L29.3983 2.20505ZM3.24907 57.999L29.3984 37.6869C29.5682 37.5523 29.7784 37.4791 29.995 37.4791C30.2115 37.4791 30.4218 37.5523 30.5915 37.6869L56.7478 57.999H3.24907ZM57.9999 56.4398L31.8225 36.1088C31.3013 35.7027 30.6595 35.4823 29.9989 35.4823C29.3382 35.4823 28.6965 35.7027 28.1753 36.1088L1.99698 56.4398V24.5202L18.3848 37.2459C18.4887 37.3264 18.6073 37.3857 18.734 37.4203C18.8608 37.455 18.9931 37.4643 19.1234 37.4478C19.2538 37.4314 19.3796 37.3894 19.4937 37.3242C19.6078 37.2591 19.708 37.1722 19.7885 37.0683C19.869 36.9645 19.9283 36.8459 19.9629 36.7191C19.9976 36.5924 20.0069 36.4601 19.9904 36.3298C19.9739 36.1994 19.9319 36.0736 19.8668 35.9595C19.8017 35.8454 19.7147 35.7452 19.6109 35.6647L2.96206 22.7371L9.99742 17.2698V24.9972C9.99742 25.2624 10.1028 25.5168 10.2903 25.7043C10.4779 25.8918 10.7322 25.9972 10.9974 25.9972C11.2627 25.9972 11.517 25.8918 11.7045 25.7043C11.8921 25.5168 11.9974 25.2624 11.9974 24.9972V6.99627C11.9974 6.73105 12.1028 6.4767 12.2903 6.28916C12.4779 6.10162 12.7322 5.99626 12.9975 5.99626H46.9991C47.2644 5.99626 47.5187 6.10162 47.7063 6.28916C47.8938 6.4767 47.9992 6.73105 47.9992 6.99627V24.9972C47.9992 25.2624 48.1045 25.5168 48.2921 25.7043C48.4796 25.8918 48.7339 25.9972 48.9992 25.9972C49.2644 25.9972 49.5187 25.8918 49.7063 25.7043C49.8938 25.5168 49.9992 25.2624 49.9992 24.9972V17.2698L57.0345 22.7371L40.3567 35.6878C40.2515 35.7678 40.1631 35.8678 40.0968 35.9821C40.0304 36.0965 39.9874 36.2228 39.9702 36.3539C39.953 36.4849 39.9619 36.6181 39.9965 36.7457C40.0311 36.8733 40.0906 36.9927 40.1716 37.0972C40.2527 37.2016 40.3536 37.2889 40.4686 37.3541C40.5836 37.4193 40.7104 37.461 40.8416 37.4769C40.9729 37.4927 41.1059 37.4824 41.2332 37.4465C41.3604 37.4107 41.4792 37.3499 41.5828 37.2678L57.9996 24.5202V56.4398H57.9999Z" fill="white"/>
<path d="M41.9973 23.9969V19.9967C41.9973 13.3689 36.6245 7.99609 29.9967 7.99609C23.3689 7.99609 17.9961 13.3689 17.9961 19.9967C17.9961 26.6245 23.3689 31.9973 29.9967 31.9973C30.549 31.9973 30.9967 31.5496 30.9967 30.9973C30.9967 30.445 30.549 29.9973 29.9967 29.9973C24.4736 29.9973 19.9962 25.5199 19.9962 19.9968C19.9962 14.4737 24.4736 9.99635 29.9967 9.99635C35.5198 9.99635 39.9972 14.4737 39.9972 19.9968V23.997C39.9972 25.1017 39.1017 25.9971 37.997 25.9971C36.8924 25.9971 35.9969 25.1017 35.9969 23.997V19.9968C35.9969 19.4445 35.5492 18.9968 34.9969 18.9968C34.4445 18.9968 33.9969 19.4445 33.9969 19.9968C33.9969 22.206 32.2059 23.997 29.9967 23.997C27.7875 23.997 25.9965 22.206 25.9965 19.9968C25.9965 17.7876 27.7875 15.9967 29.9967 15.9967C30.549 15.9967 30.9967 15.549 30.9967 14.9966C30.9967 14.4443 30.549 13.9966 29.9967 13.9966C27.3112 13.9907 24.9487 15.7698 24.2127 18.3525C23.4768 20.9352 24.5464 23.6924 26.8317 25.1029C29.1169 26.5135 32.0611 26.2339 34.0399 24.4182C34.2576 26.5331 36.0958 28.1056 38.2189 27.9932C40.3421 27.8807 42.004 26.123 41.9973 23.9969Z" fill="white"/>
</g>
<defs>
<clipPath id="clip0_117_1954">
<rect width="60" height="60" fill="white"/>
</clipPath>
</defs>
</svg>
