<svg width="188" height="192" viewBox="0 0 188 192" fill="none" xmlns="http://www.w3.org/2000/svg">
<g clip-path="url(#clip0_116_44)">
<path d="M4.81657 2.50946C4.81657 3.89766 3.74053 5.01891 2.40829 5.01891C1.07604 5.01891 0 3.89766 0 2.50946C0 1.12125 1.07604 0 2.40829 0C3.74053 0 4.81657 1.12125 4.81657 2.50946Z" fill="#5956E9"/>
<path d="M21.4699 2.50946C21.4699 3.89766 20.3938 5.01891 19.0616 5.01891C17.7294 5.01891 16.6533 3.89766 16.6533 2.50946C16.6533 1.12125 17.7294 0 19.0616 0C20.3938 0 21.4699 1.12125 21.4699 2.50946Z" fill="#5956E9"/>
<path d="M38.1232 2.50946C38.1232 3.89766 37.0472 5.01891 35.7149 5.01891C34.3827 5.01891 33.3066 3.89766 33.3066 2.50946C33.3066 1.12125 34.3827 0 35.7149 0C37.0472 0 38.1232 1.12125 38.1232 2.50946Z" fill="#5956E9"/>
<path d="M54.7748 2.50946C54.7748 3.89766 53.6988 5.01891 52.3665 5.01891C51.0343 5.01891 49.9583 3.89766 49.9583 2.50946C49.9583 1.12125 51.0343 0 52.3665 0C53.6988 0 54.7748 1.12125 54.7748 2.50946Z" fill="#5956E9"/>
<path d="M71.4281 2.50946C71.4281 3.89766 70.3521 5.01891 69.0199 5.01891C67.6876 5.01891 66.6116 3.89766 66.6116 2.50946C66.6116 1.12125 67.6876 0 69.0199 0C70.3521 0 71.4281 1.12125 71.4281 2.50946Z" fill="#5956E9"/>
<path d="M88.0815 2.50946C88.0815 3.89766 87.0054 5.01891 85.6732 5.01891C84.3409 5.01891 83.2649 3.89766 83.2649 2.50946C83.2649 1.12125 84.3409 0 85.6732 0C87.0054 0 88.0815 1.12125 88.0815 2.50946Z" fill="#5956E9"/>
<path d="M104.735 2.50946C104.735 3.89766 103.659 5.01891 102.326 5.01891C100.994 5.01891 99.9182 3.89766 99.9182 2.50946C99.9182 1.12125 100.994 0 102.326 0C103.659 0 104.735 1.12125 104.735 2.50946Z" fill="#5956E9"/>
<path d="M121.388 2.50946C121.388 3.89766 120.312 5.01891 118.98 5.01891C117.648 5.01891 116.572 3.89766 116.572 2.50946C116.572 1.12125 117.648 0 118.98 0C120.312 0 121.388 1.12125 121.388 2.50946Z" fill="#5956E9"/>
<path d="M138.041 2.50946C138.041 3.89766 136.965 5.01891 135.633 5.01891C134.301 5.01891 133.225 3.89766 133.225 2.50946C133.225 1.12125 134.301 0 135.633 0C136.965 0 138.041 1.12125 138.041 2.50946Z" fill="#5956E9"/>
<path d="M154.693 2.50946C154.693 3.89766 153.617 5.01891 152.285 5.01891C150.953 5.01891 149.877 3.89766 149.877 2.50946C149.877 1.12125 150.953 0 152.285 0C153.617 0 154.693 1.12125 154.693 2.50946Z" fill="#5956E9"/>
<path d="M171.347 2.50946C171.347 3.89766 170.271 5.01891 168.938 5.01891C167.606 5.01891 166.53 3.89766 166.53 2.50946C166.53 1.12125 167.606 0 168.938 0C170.271 0 171.347 1.12125 171.347 2.50946Z" fill="#5956E9"/>
<path d="M188 2.50946C188 3.89766 186.924 5.01891 185.592 5.01891C184.259 5.01891 183.183 3.89766 183.183 2.50946C183.183 1.12125 184.259 0 185.592 0C186.924 0 188 1.12125 188 2.50946Z" fill="#5956E9"/>
<path d="M4.81657 21.1972C4.81657 22.5854 3.74053 23.7067 2.40829 23.7067C1.07604 23.7067 0 22.5854 0 21.1972C0 19.809 1.07604 18.6877 2.40829 18.6877C3.74053 18.6877 4.81657 19.809 4.81657 21.1972Z" fill="#5956E9"/>
<path d="M21.4699 21.1972C21.4699 22.5854 20.3938 23.7067 19.0616 23.7067C17.7294 23.7067 16.6533 22.5854 16.6533 21.1972C16.6533 19.809 17.7294 18.6877 19.0616 18.6877C20.3938 18.6877 21.4699 19.809 21.4699 21.1972Z" fill="#5956E9"/>
<path d="M38.1232 21.1972C38.1232 22.5854 37.0472 23.7067 35.7149 23.7067C34.3827 23.7067 33.3066 22.5854 33.3066 21.1972C33.3066 19.809 34.3827 18.6877 35.7149 18.6877C37.0472 18.6877 38.1232 19.809 38.1232 21.1972Z" fill="#5956E9"/>
<path d="M54.7748 21.1972C54.7748 22.5854 53.6988 23.7067 52.3665 23.7067C51.0343 23.7067 49.9583 22.5854 49.9583 21.1972C49.9583 19.809 51.0343 18.6877 52.3665 18.6877C53.6988 18.6877 54.7748 19.809 54.7748 21.1972Z" fill="#5956E9"/>
<path d="M71.4281 21.1972C71.4281 22.5854 70.3521 23.7067 69.0199 23.7067C67.6876 23.7067 66.6116 22.5854 66.6116 21.1972C66.6116 19.809 67.6876 18.6877 69.0199 18.6877C70.3521 18.6877 71.4281 19.809 71.4281 21.1972Z" fill="#5956E9"/>
<path d="M88.0815 21.1972C88.0815 22.5854 87.0054 23.7067 85.6732 23.7067C84.3409 23.7067 83.2649 22.5854 83.2649 21.1972C83.2649 19.809 84.3409 18.6877 85.6732 18.6877C87.0054 18.6877 88.0815 19.809 88.0815 21.1972Z" fill="#5956E9"/>
<path d="M104.735 21.1972C104.735 22.5854 103.659 23.7067 102.326 23.7067C100.994 23.7067 99.9182 22.5854 99.9182 21.1972C99.9182 19.809 100.994 18.6877 102.326 18.6877C103.659 18.6877 104.735 19.809 104.735 21.1972Z" fill="#5956E9"/>
<path d="M121.388 21.1972C121.388 22.5854 120.312 23.7067 118.98 23.7067C117.648 23.7067 116.572 22.5854 116.572 21.1972C116.572 19.809 117.648 18.6877 118.98 18.6877C120.312 18.6877 121.388 19.809 121.388 21.1972Z" fill="#5956E9"/>
<path d="M138.041 21.1972C138.041 22.5854 136.965 23.7067 135.633 23.7067C134.301 23.7067 133.225 22.5854 133.225 21.1972C133.225 19.809 134.301 18.6877 135.633 18.6877C136.965 18.6877 138.041 19.809 138.041 21.1972Z" fill="#5956E9"/>
<path d="M154.693 21.1972C154.693 22.5854 153.617 23.7067 152.285 23.7067C150.953 23.7067 149.877 22.5854 149.877 21.1972C149.877 19.809 150.953 18.6877 152.285 18.6877C153.617 18.6877 154.693 19.809 154.693 21.1972Z" fill="#5956E9"/>
<path d="M171.347 21.1972C171.347 22.5854 170.271 23.7067 168.938 23.7067C167.606 23.7067 166.53 22.5854 166.53 21.1972C166.53 19.809 167.606 18.6877 168.938 18.6877C170.271 18.6877 171.347 19.809 171.347 21.1972Z" fill="#5956E9"/>
<path d="M188 21.1972C188 22.5854 186.924 23.7067 185.592 23.7067C184.259 23.7067 183.183 22.5854 183.183 21.1972C183.183 19.809 184.259 18.6877 185.592 18.6877C186.924 18.6877 188 19.809 188 21.1972Z" fill="#5956E9"/>
<path d="M4.81657 39.9117C4.81657 41.2999 3.74053 42.4211 2.40829 42.4211C1.07604 42.3944 0 41.2732 0 39.9117C0 38.5235 1.07604 37.4022 2.40829 37.4022C3.74053 37.4022 4.81657 38.5235 4.81657 39.9117Z" fill="#5956E9"/>
<path d="M21.4699 39.9117C21.4699 41.2999 20.3938 42.4211 19.0616 42.4211C17.7294 42.4211 16.6533 41.2999 16.6533 39.9117C16.6533 38.5235 17.7294 37.4022 19.0616 37.4022C20.3938 37.4022 21.4699 38.5235 21.4699 39.9117Z" fill="#5956E9"/>
<path d="M38.1232 39.9117C38.1232 41.2999 37.0472 42.4211 35.7149 42.4211C34.3827 42.4211 33.3066 41.2999 33.3066 39.9117C33.3066 38.5235 34.3827 37.4022 35.7149 37.4022C37.0472 37.4022 38.1232 38.5235 38.1232 39.9117Z" fill="#5956E9"/>
<path d="M54.7748 39.9117C54.7748 41.2999 53.6988 42.4211 52.3665 42.4211C51.0343 42.4211 49.9583 41.2999 49.9583 39.9117C49.9583 38.5235 51.0343 37.4022 52.3665 37.4022C53.6988 37.4022 54.7748 38.5235 54.7748 39.9117Z" fill="#5956E9"/>
<path d="M71.4281 39.9117C71.4281 41.2999 70.3521 42.4211 69.0199 42.4211C67.6876 42.4211 66.6116 41.2999 66.6116 39.9117C66.6116 38.5235 67.6876 37.4022 69.0199 37.4022C70.3521 37.4022 71.4281 38.5235 71.4281 39.9117Z" fill="#5956E9"/>
<path d="M88.0815 39.9117C88.0815 41.2999 87.0054 42.4211 85.6732 42.4211C84.3409 42.4211 83.2649 41.2999 83.2649 39.9117C83.2649 38.5235 84.3409 37.4022 85.6732 37.4022C87.0054 37.4022 88.0815 38.5235 88.0815 39.9117Z" fill="#5956E9"/>
<path d="M104.735 39.9117C104.735 41.2999 103.659 42.4211 102.326 42.4211C100.994 42.4211 99.9182 41.2999 99.9182 39.9117C99.9182 38.5235 100.994 37.4022 102.326 37.4022C103.659 37.4022 104.735 38.5235 104.735 39.9117Z" fill="#5956E9"/>
<path d="M121.388 39.9117C121.388 41.2999 120.312 42.4211 118.98 42.4211C117.648 42.4211 116.572 41.2999 116.572 39.9117C116.572 38.5235 117.648 37.4022 118.98 37.4022C120.312 37.4022 121.388 38.5235 121.388 39.9117Z" fill="#5956E9"/>
<path d="M138.041 39.9117C138.041 41.2999 136.965 42.4211 135.633 42.4211C134.301 42.4211 133.225 41.2999 133.225 39.9117C133.225 38.5235 134.301 37.4022 135.633 37.4022C136.965 37.4022 138.041 38.5235 138.041 39.9117Z" fill="#5956E9"/>
<path d="M154.693 39.9117C154.693 41.2999 153.617 42.4211 152.285 42.4211C150.953 42.4211 149.877 41.2999 149.877 39.9117C149.877 38.5235 150.953 37.4022 152.285 37.4022C153.617 37.4022 154.693 38.5235 154.693 39.9117Z" fill="#5956E9"/>
<path d="M171.347 39.9117C171.347 41.2999 170.271 42.4211 168.938 42.4211C167.606 42.4211 166.53 41.2999 166.53 39.9117C166.53 38.5235 167.606 37.4022 168.938 37.4022C170.271 37.4022 171.347 38.5235 171.347 39.9117Z" fill="#5956E9"/>
<path d="M188 39.9117C188 41.2999 186.924 42.4211 185.592 42.4211C184.259 42.4211 183.183 41.2999 183.183 39.9117C183.183 38.5235 184.259 37.4022 185.592 37.4022C186.924 37.4022 188 38.5235 188 39.9117Z" fill="#5956E9"/>
<path d="M4.81657 58.5976C4.81657 59.9858 3.74053 61.107 2.40829 61.107C1.07604 61.107 0 59.9858 0 58.5976C0 57.2094 1.07604 56.0881 2.40829 56.0881C3.74053 56.0881 4.81657 57.2094 4.81657 58.5976Z" fill="#5956E9"/>
<path d="M21.4699 58.5976C21.4699 59.9858 20.3938 61.107 19.0616 61.107C17.7294 61.107 16.6533 59.9858 16.6533 58.5976C16.6533 57.2094 17.7294 56.0881 19.0616 56.0881C20.3938 56.0881 21.4699 57.2094 21.4699 58.5976Z" fill="#5956E9"/>
<path d="M38.1232 58.5976C38.1232 59.9858 37.0472 61.107 35.7149 61.107C34.3827 61.107 33.3066 59.9858 33.3066 58.5976C33.3066 57.2094 34.3827 56.0881 35.7149 56.0881C37.0472 56.0881 38.1232 57.2094 38.1232 58.5976Z" fill="#5956E9"/>
<path d="M54.7748 58.5976C54.7748 59.9858 53.6988 61.107 52.3665 61.107C51.0343 61.107 49.9583 59.9858 49.9583 58.5976C49.9583 57.2094 51.0343 56.0881 52.3665 56.0881C53.6988 56.0881 54.7748 57.2094 54.7748 58.5976Z" fill="#5956E9"/>
<path d="M71.4281 58.5976C71.4281 59.9858 70.3521 61.107 69.0199 61.107C67.6876 61.107 66.6116 59.9858 66.6116 58.5976C66.6116 57.2094 67.6876 56.0881 69.0199 56.0881C70.3521 56.0881 71.4281 57.2094 71.4281 58.5976Z" fill="#5956E9"/>
<path d="M88.0815 58.5976C88.0815 59.9858 87.0054 61.107 85.6732 61.107C84.3409 61.107 83.2649 59.9858 83.2649 58.5976C83.2649 57.2094 84.3409 56.0881 85.6732 56.0881C87.0054 56.0881 88.0815 57.2094 88.0815 58.5976Z" fill="#5956E9"/>
<path d="M104.735 58.5976C104.735 59.9858 103.659 61.107 102.326 61.107C100.994 61.107 99.9182 59.9858 99.9182 58.5976C99.9182 57.2094 100.994 56.0881 102.326 56.0881C103.659 56.0881 104.735 57.2094 104.735 58.5976Z" fill="#5956E9"/>
<path d="M121.388 58.5976C121.388 59.9858 120.312 61.107 118.98 61.107C117.648 61.107 116.572 59.9858 116.572 58.5976C116.572 57.2094 117.648 56.0881 118.98 56.0881C120.312 56.0881 121.388 57.2094 121.388 58.5976Z" fill="#5956E9"/>
<path d="M138.041 58.5976C138.041 59.9858 136.965 61.107 135.633 61.107C134.301 61.107 133.225 59.9858 133.225 58.5976C133.225 57.2094 134.301 56.0881 135.633 56.0881C136.965 56.0881 138.041 57.2094 138.041 58.5976Z" fill="#5956E9"/>
<path d="M154.693 58.5976C154.693 59.9858 153.617 61.107 152.285 61.107C150.953 61.107 149.877 59.9858 149.877 58.5976C149.877 57.2094 150.953 56.0881 152.285 56.0881C153.617 56.0881 154.693 57.2094 154.693 58.5976Z" fill="#5956E9"/>
<path d="M171.347 58.5976C171.347 59.9858 170.271 61.107 168.938 61.107C167.606 61.107 166.53 59.9858 166.53 58.5976C166.53 57.2094 167.606 56.0881 168.938 56.0881C170.271 56.0881 171.347 57.2094 171.347 58.5976Z" fill="#5956E9"/>
<path d="M188 58.5976C188 59.9858 186.924 61.107 185.592 61.107C184.259 61.107 183.183 59.9858 183.183 58.5976C183.183 57.2094 184.259 56.0881 185.592 56.0881C186.924 56.0881 188 57.2094 188 58.5976Z" fill="#5956E9"/>
<path d="M4.81657 77.2853C4.81657 78.6735 3.74053 79.7948 2.40829 79.7948C1.07604 79.7948 0 78.6735 0 77.2853C0 75.8971 1.07604 74.7759 2.40829 74.7759C3.74053 74.8026 4.81657 75.9238 4.81657 77.2853Z" fill="#5956E9"/>
<path d="M21.4699 77.2853C21.4699 78.6735 20.3938 79.7948 19.0616 79.7948C17.7294 79.7948 16.6533 78.6735 16.6533 77.2853C16.6533 75.8971 17.7294 74.7759 19.0616 74.7759C20.3938 74.8026 21.4699 75.9238 21.4699 77.2853Z" fill="#5956E9"/>
<path d="M38.1232 77.2853C38.1232 78.6735 37.0472 79.7948 35.7149 79.7948C34.3827 79.7948 33.3066 78.6735 33.3066 77.2853C33.3066 75.8971 34.3827 74.7759 35.7149 74.7759C37.0472 74.8026 38.1232 75.9238 38.1232 77.2853Z" fill="#5956E9"/>
<path d="M54.7748 77.2853C54.7748 78.6735 53.6988 79.7948 52.3665 79.7948C51.0343 79.7948 49.9583 78.6735 49.9583 77.2853C49.9583 75.8971 51.0343 74.7759 52.3665 74.7759C53.6988 74.8026 54.7748 75.9238 54.7748 77.2853Z" fill="#5956E9"/>
<path d="M71.4281 77.2853C71.4281 78.6735 70.3521 79.7948 69.0199 79.7948C67.6876 79.7948 66.6116 78.6735 66.6116 77.2853C66.6116 75.8971 67.6876 74.7759 69.0199 74.7759C70.3521 74.8026 71.4281 75.9238 71.4281 77.2853Z" fill="#5956E9"/>
<path d="M88.0815 77.2853C88.0815 78.6735 87.0054 79.7948 85.6732 79.7948C84.3409 79.7948 83.2649 78.6735 83.2649 77.2853C83.2649 75.8971 84.3409 74.7759 85.6732 74.7759C87.0054 74.8026 88.0815 75.9238 88.0815 77.2853Z" fill="#5956E9"/>
<path d="M104.735 77.2853C104.735 78.6735 103.659 79.7948 102.326 79.7948C100.994 79.7948 99.9182 78.6735 99.9182 77.2853C99.9182 75.8971 100.994 74.7759 102.326 74.7759C103.659 74.8026 104.735 75.9238 104.735 77.2853Z" fill="#5956E9"/>
<path d="M121.388 77.2853C121.388 78.6735 120.312 79.7948 118.98 79.7948C117.648 79.7948 116.572 78.6735 116.572 77.2853C116.572 75.8971 117.648 74.7759 118.98 74.7759C120.312 74.8026 121.388 75.9238 121.388 77.2853Z" fill="#5956E9"/>
<path d="M138.041 77.2853C138.041 78.6735 136.965 79.7948 135.633 79.7948C134.301 79.7948 133.225 78.6735 133.225 77.2853C133.225 75.8971 134.301 74.7759 135.633 74.7759C136.965 74.8026 138.041 75.9238 138.041 77.2853Z" fill="#5956E9"/>
<path d="M154.693 77.2853C154.693 78.6735 153.617 79.7948 152.285 79.7948C150.953 79.7948 149.877 78.6735 149.877 77.2853C149.877 75.8971 150.953 74.7759 152.285 74.7759C153.617 74.8026 154.693 75.9238 154.693 77.2853Z" fill="#5956E9"/>
<path d="M171.347 77.2853C171.347 78.6735 170.271 79.7948 168.938 79.7948C167.606 79.7948 166.53 78.6735 166.53 77.2853C166.53 75.8971 167.606 74.7759 168.938 74.7759C170.271 74.8026 171.347 75.9238 171.347 77.2853Z" fill="#5956E9"/>
<path d="M188 77.2853C188 78.6735 186.924 79.7948 185.592 79.7948C184.259 79.7948 183.183 78.6735 183.183 77.2853C183.183 75.8971 184.259 74.7759 185.592 74.7759C186.924 74.8026 188 75.9238 188 77.2853Z" fill="#5956E9"/>
<path d="M4.81657 96.0001C4.81657 97.3883 3.74053 98.5095 2.40829 98.5095C1.07604 98.5095 0 97.3883 0 96.0001C0 94.6118 1.07604 93.4906 2.40829 93.4906C3.74053 93.4906 4.81657 94.6118 4.81657 96.0001Z" fill="#5956E9"/>
<path d="M21.4699 96.0001C21.4699 97.3883 20.3938 98.5095 19.0616 98.5095C17.7294 98.5095 16.6533 97.3883 16.6533 96.0001C16.6533 94.6118 17.7294 93.4906 19.0616 93.4906C20.3938 93.4906 21.4699 94.6118 21.4699 96.0001Z" fill="#5956E9"/>
<path d="M38.1232 96.0001C38.1232 97.3883 37.0472 98.5095 35.7149 98.5095C34.3827 98.5095 33.3066 97.3883 33.3066 96.0001C33.3066 94.6118 34.3827 93.4906 35.7149 93.4906C37.0472 93.4906 38.1232 94.6118 38.1232 96.0001Z" fill="#5956E9"/>
<path d="M54.7748 96.0001C54.7748 97.3883 53.6988 98.5095 52.3665 98.5095C51.0343 98.5095 49.9583 97.3883 49.9583 96.0001C49.9583 94.6118 51.0343 93.4906 52.3665 93.4906C53.6988 93.4906 54.7748 94.6118 54.7748 96.0001Z" fill="#5956E9"/>
<path d="M71.4281 96.0001C71.4281 97.3883 70.3521 98.5095 69.0199 98.5095C67.6876 98.5095 66.6116 97.3883 66.6116 96.0001C66.6116 94.6118 67.6876 93.4906 69.0199 93.4906C70.3521 93.4906 71.4281 94.6118 71.4281 96.0001Z" fill="#5956E9"/>
<path d="M88.0815 96.0001C88.0815 97.3883 87.0054 98.5095 85.6732 98.5095C84.3409 98.5095 83.2649 97.3883 83.2649 96.0001C83.2649 94.6118 84.3409 93.4906 85.6732 93.4906C87.0054 93.4906 88.0815 94.6118 88.0815 96.0001Z" fill="#5956E9"/>
<path d="M104.735 96.0001C104.735 97.3883 103.659 98.5095 102.326 98.5095C100.994 98.5095 99.9182 97.3883 99.9182 96.0001C99.9182 94.6118 100.994 93.4906 102.326 93.4906C103.659 93.4906 104.735 94.6118 104.735 96.0001Z" fill="#5956E9"/>
<path d="M121.388 96.0001C121.388 97.3883 120.312 98.5095 118.98 98.5095C117.648 98.5095 116.572 97.3883 116.572 96.0001C116.572 94.6118 117.648 93.4906 118.98 93.4906C120.312 93.4906 121.388 94.6118 121.388 96.0001Z" fill="#5956E9"/>
<path d="M138.041 96.0001C138.041 97.3883 136.965 98.5095 135.633 98.5095C134.301 98.5095 133.225 97.3883 133.225 96.0001C133.225 94.6118 134.301 93.4906 135.633 93.4906C136.965 93.4906 138.041 94.6118 138.041 96.0001Z" fill="#5956E9"/>
<path d="M154.693 96.0001C154.693 97.3883 153.617 98.5095 152.285 98.5095C150.953 98.5095 149.877 97.3883 149.877 96.0001C149.877 94.6118 150.953 93.4906 152.285 93.4906C153.617 93.4906 154.693 94.6118 154.693 96.0001Z" fill="#5956E9"/>
<path d="M171.347 96.0001C171.347 97.3883 170.271 98.5095 168.938 98.5095C167.606 98.5095 166.53 97.3883 166.53 96.0001C166.53 94.6118 167.606 93.4906 168.938 93.4906C170.271 93.4906 171.347 94.6118 171.347 96.0001Z" fill="#5956E9"/>
<path d="M188 96.0001C188 97.3883 186.924 98.5095 185.592 98.5095C184.259 98.5095 183.183 97.3883 183.183 96.0001C183.183 94.6118 184.259 93.4906 185.592 93.4906C186.924 93.4906 188 94.6118 188 96.0001Z" fill="#5956E9"/>
<path d="M4.81657 114.687C4.81657 116.076 3.74053 117.197 2.40829 117.197C1.07604 117.197 0 116.076 0 114.687C0 113.299 1.07604 112.178 2.40829 112.178C3.74053 112.178 4.81657 113.299 4.81657 114.687Z" fill="#5956E9"/>
<path d="M21.4699 114.687C21.4699 116.076 20.3938 117.197 19.0616 117.197C17.7294 117.197 16.6533 116.076 16.6533 114.687C16.6533 113.299 17.7294 112.178 19.0616 112.178C20.3938 112.178 21.4699 113.299 21.4699 114.687Z" fill="#5956E9"/>
<path d="M38.1232 114.687C38.1232 116.076 37.0472 117.197 35.7149 117.197C34.3827 117.197 33.3066 116.076 33.3066 114.687C33.3066 113.299 34.3827 112.178 35.7149 112.178C37.0472 112.178 38.1232 113.299 38.1232 114.687Z" fill="#5956E9"/>
<path d="M54.7748 114.687C54.7748 116.076 53.6988 117.197 52.3665 117.197C51.0343 117.197 49.9583 116.076 49.9583 114.687C49.9583 113.299 51.0343 112.178 52.3665 112.178C53.6988 112.178 54.7748 113.299 54.7748 114.687Z" fill="#5956E9"/>
<path d="M71.4281 114.687C71.4281 116.076 70.3521 117.197 69.0199 117.197C67.6876 117.197 66.6116 116.076 66.6116 114.687C66.6116 113.299 67.6876 112.178 69.0199 112.178C70.3521 112.178 71.4281 113.299 71.4281 114.687Z" fill="#5956E9"/>
<path d="M88.0815 114.687C88.0815 116.076 87.0054 117.197 85.6732 117.197C84.3409 117.197 83.2649 116.076 83.2649 114.687C83.2649 113.299 84.3409 112.178 85.6732 112.178C87.0054 112.178 88.0815 113.299 88.0815 114.687Z" fill="#5956E9"/>
<path d="M104.735 114.687C104.735 116.076 103.659 117.197 102.326 117.197C100.994 117.197 99.9182 116.076 99.9182 114.687C99.9182 113.299 100.994 112.178 102.326 112.178C103.659 112.178 104.735 113.299 104.735 114.687Z" fill="#5956E9"/>
<path d="M121.388 114.687C121.388 116.076 120.312 117.197 118.98 117.197C117.648 117.197 116.572 116.076 116.572 114.687C116.572 113.299 117.648 112.178 118.98 112.178C120.312 112.178 121.388 113.299 121.388 114.687Z" fill="#5956E9"/>
<path d="M138.041 114.687C138.041 116.076 136.965 117.197 135.633 117.197C134.301 117.197 133.225 116.076 133.225 114.687C133.225 113.299 134.301 112.178 135.633 112.178C136.965 112.178 138.041 113.299 138.041 114.687Z" fill="#5956E9"/>
<path d="M154.693 114.687C154.693 116.076 153.617 117.197 152.285 117.197C150.953 117.197 149.877 116.076 149.877 114.687C149.877 113.299 150.953 112.178 152.285 112.178C153.617 112.178 154.693 113.299 154.693 114.687Z" fill="#5956E9"/>
<path d="M171.347 114.687C171.347 116.076 170.271 117.197 168.938 117.197C167.606 117.197 166.53 116.076 166.53 114.687C166.53 113.299 167.606 112.178 168.938 112.178C170.271 112.178 171.347 113.299 171.347 114.687Z" fill="#5956E9"/>
<path d="M188 114.687C188 116.076 186.924 117.197 185.592 117.197C184.259 117.197 183.183 116.076 183.183 114.687C183.183 113.299 184.259 112.178 185.592 112.178C186.924 112.178 188 113.299 188 114.687Z" fill="#5956E9"/>
<path d="M4.81657 133.402C4.81657 134.79 3.74053 135.911 2.40829 135.911C1.07604 135.885 0 134.764 0 133.402C0 132.014 1.07604 130.893 2.40829 130.893C3.74053 130.893 4.81657 132.014 4.81657 133.402Z" fill="#5956E9"/>
<path d="M21.4699 133.402C21.4699 134.79 20.3938 135.911 19.0616 135.911C17.7294 135.911 16.6533 134.79 16.6533 133.402C16.6533 132.014 17.7294 130.893 19.0616 130.893C20.3938 130.893 21.4699 132.014 21.4699 133.402Z" fill="#5956E9"/>
<path d="M38.1232 133.402C38.1232 134.79 37.0472 135.911 35.7149 135.911C34.3827 135.911 33.3066 134.79 33.3066 133.402C33.3066 132.014 34.3827 130.893 35.7149 130.893C37.0472 130.893 38.1232 132.014 38.1232 133.402Z" fill="#5956E9"/>
<path d="M54.7748 133.402C54.7748 134.79 53.6988 135.911 52.3665 135.911C51.0343 135.911 49.9583 134.79 49.9583 133.402C49.9583 132.014 51.0343 130.893 52.3665 130.893C53.6988 130.893 54.7748 132.014 54.7748 133.402Z" fill="#5956E9"/>
<path d="M71.4281 133.402C71.4281 134.79 70.3521 135.911 69.0199 135.911C67.6876 135.911 66.6116 134.79 66.6116 133.402C66.6116 132.014 67.6876 130.893 69.0199 130.893C70.3521 130.893 71.4281 132.014 71.4281 133.402Z" fill="#5956E9"/>
<path d="M88.0815 133.402C88.0815 134.79 87.0054 135.911 85.6732 135.911C84.3409 135.911 83.2649 134.79 83.2649 133.402C83.2649 132.014 84.3409 130.893 85.6732 130.893C87.0054 130.893 88.0815 132.014 88.0815 133.402Z" fill="#5956E9"/>
<path d="M104.735 133.402C104.735 134.79 103.659 135.911 102.326 135.911C100.994 135.911 99.9182 134.79 99.9182 133.402C99.9182 132.014 100.994 130.893 102.326 130.893C103.659 130.893 104.735 132.014 104.735 133.402Z" fill="#5956E9"/>
<path d="M121.388 133.402C121.388 134.79 120.312 135.911 118.98 135.911C117.648 135.911 116.572 134.79 116.572 133.402C116.572 132.014 117.648 130.893 118.98 130.893C120.312 130.893 121.388 132.014 121.388 133.402Z" fill="#5956E9"/>
<path d="M138.041 133.402C138.041 134.79 136.965 135.911 135.633 135.911C134.301 135.911 133.225 134.79 133.225 133.402C133.225 132.014 134.301 130.893 135.633 130.893C136.965 130.893 138.041 132.014 138.041 133.402Z" fill="#5956E9"/>
<path d="M154.693 133.402C154.693 134.79 153.617 135.911 152.285 135.911C150.953 135.911 149.877 134.79 149.877 133.402C149.877 132.014 150.953 130.893 152.285 130.893C153.617 130.893 154.693 132.014 154.693 133.402Z" fill="#5956E9"/>
<path d="M171.347 133.402C171.347 134.79 170.271 135.911 168.938 135.911C167.606 135.911 166.53 134.79 166.53 133.402C166.53 132.014 167.606 130.893 168.938 130.893C170.271 130.893 171.347 132.014 171.347 133.402Z" fill="#5956E9"/>
<path d="M188 133.402C188 134.79 186.924 135.911 185.592 135.911C184.259 135.911 183.183 134.79 183.183 133.402C183.183 132.014 184.259 130.893 185.592 130.893C186.924 130.893 188 132.014 188 133.402Z" fill="#5956E9"/>
<path d="M4.81657 152.09C4.81657 153.478 3.74053 154.599 2.40829 154.599C1.07604 154.599 0 153.478 0 152.09C0 150.701 1.07604 149.58 2.40829 149.58C3.74053 149.58 4.81657 150.701 4.81657 152.09Z" fill="#5956E9"/>
<path d="M21.4699 152.09C21.4699 153.478 20.3938 154.599 19.0616 154.599C17.7294 154.599 16.6533 153.478 16.6533 152.09C16.6533 150.701 17.7294 149.58 19.0616 149.58C20.3938 149.58 21.4699 150.701 21.4699 152.09Z" fill="#5956E9"/>
<path d="M38.1232 152.09C38.1232 153.478 37.0472 154.599 35.7149 154.599C34.3827 154.599 33.3066 153.478 33.3066 152.09C33.3066 150.701 34.3827 149.58 35.7149 149.58C37.0472 149.58 38.1232 150.701 38.1232 152.09Z" fill="#5956E9"/>
<path d="M54.7748 152.09C54.7748 153.478 53.6988 154.599 52.3665 154.599C51.0343 154.599 49.9583 153.478 49.9583 152.09C49.9583 150.701 51.0343 149.58 52.3665 149.58C53.6988 149.58 54.7748 150.701 54.7748 152.09Z" fill="#5956E9"/>
<path d="M71.4281 152.09C71.4281 153.478 70.3521 154.599 69.0199 154.599C67.6876 154.599 66.6116 153.478 66.6116 152.09C66.6116 150.701 67.6876 149.58 69.0199 149.58C70.3521 149.58 71.4281 150.701 71.4281 152.09Z" fill="#5956E9"/>
<path d="M88.0815 152.09C88.0815 153.478 87.0054 154.599 85.6732 154.599C84.3409 154.599 83.2649 153.478 83.2649 152.09C83.2649 150.701 84.3409 149.58 85.6732 149.58C87.0054 149.58 88.0815 150.701 88.0815 152.09Z" fill="#5956E9"/>
<path d="M104.735 152.09C104.735 153.478 103.659 154.599 102.326 154.599C100.994 154.599 99.9182 153.478 99.9182 152.09C99.9182 150.701 100.994 149.58 102.326 149.58C103.659 149.58 104.735 150.701 104.735 152.09Z" fill="#5956E9"/>
<path d="M121.388 152.09C121.388 153.478 120.312 154.599 118.98 154.599C117.648 154.599 116.572 153.478 116.572 152.09C116.572 150.701 117.648 149.58 118.98 149.58C120.312 149.58 121.388 150.701 121.388 152.09Z" fill="#5956E9"/>
<path d="M138.041 152.09C138.041 153.478 136.965 154.599 135.633 154.599C134.301 154.599 133.225 153.478 133.225 152.09C133.225 150.701 134.301 149.58 135.633 149.58C136.965 149.58 138.041 150.701 138.041 152.09Z" fill="#5956E9"/>
<path d="M154.693 152.09C154.693 153.478 153.617 154.599 152.285 154.599C150.953 154.599 149.877 153.478 149.877 152.09C149.877 150.701 150.953 149.58 152.285 149.58C153.617 149.58 154.693 150.701 154.693 152.09Z" fill="#5956E9"/>
<path d="M171.347 152.09C171.347 153.478 170.271 154.599 168.938 154.599C167.606 154.599 166.53 153.478 166.53 152.09C166.53 150.701 167.606 149.58 168.938 149.58C170.271 149.58 171.347 150.701 171.347 152.09Z" fill="#5956E9"/>
<path d="M188 152.09C188 153.478 186.924 154.599 185.592 154.599C184.259 154.599 183.183 153.478 183.183 152.09C183.183 150.701 184.259 149.58 185.592 149.58C186.924 149.58 188 150.701 188 152.09Z" fill="#5956E9"/>
<path d="M4.81657 170.776C4.81657 172.164 3.74053 173.285 2.40829 173.285C1.07604 173.285 0 172.164 0 170.776C0 169.387 1.07604 168.266 2.40829 168.266C3.74053 168.293 4.81657 169.414 4.81657 170.776Z" fill="#5956E9"/>
<path d="M21.4699 170.776C21.4699 172.164 20.3938 173.285 19.0616 173.285C17.7294 173.285 16.6533 172.164 16.6533 170.776C16.6533 169.387 17.7294 168.266 19.0616 168.266C20.3938 168.293 21.4699 169.414 21.4699 170.776Z" fill="#5956E9"/>
<path d="M38.1232 170.776C38.1232 172.164 37.0472 173.285 35.7149 173.285C34.3827 173.285 33.3066 172.164 33.3066 170.776C33.3066 169.387 34.3827 168.266 35.7149 168.266C37.0472 168.293 38.1232 169.414 38.1232 170.776Z" fill="#5956E9"/>
<path d="M54.7748 170.776C54.7748 172.164 53.6988 173.285 52.3665 173.285C51.0343 173.285 49.9583 172.164 49.9583 170.776C49.9583 169.387 51.0343 168.266 52.3665 168.266C53.6988 168.293 54.7748 169.414 54.7748 170.776Z" fill="#5956E9"/>
<path d="M71.4281 170.776C71.4281 172.164 70.3521 173.285 69.0199 173.285C67.6876 173.285 66.6116 172.164 66.6116 170.776C66.6116 169.387 67.6876 168.266 69.0199 168.266C70.3521 168.293 71.4281 169.414 71.4281 170.776Z" fill="#5956E9"/>
<path d="M88.0815 170.776C88.0815 172.164 87.0054 173.285 85.6732 173.285C84.3409 173.285 83.2649 172.164 83.2649 170.776C83.2649 169.387 84.3409 168.266 85.6732 168.266C87.0054 168.293 88.0815 169.414 88.0815 170.776Z" fill="#5956E9"/>
<path d="M104.735 170.776C104.735 172.164 103.659 173.285 102.326 173.285C100.994 173.285 99.9182 172.164 99.9182 170.776C99.9182 169.387 100.994 168.266 102.326 168.266C103.659 168.293 104.735 169.414 104.735 170.776Z" fill="#5956E9"/>
<path d="M121.388 170.776C121.388 172.164 120.312 173.285 118.98 173.285C117.648 173.285 116.572 172.164 116.572 170.776C116.572 169.387 117.648 168.266 118.98 168.266C120.312 168.293 121.388 169.414 121.388 170.776Z" fill="#5956E9"/>
<path d="M138.041 170.776C138.041 172.164 136.965 173.285 135.633 173.285C134.301 173.285 133.225 172.164 133.225 170.776C133.225 169.387 134.301 168.266 135.633 168.266C136.965 168.293 138.041 169.414 138.041 170.776Z" fill="#5956E9"/>
<path d="M154.693 170.776C154.693 172.164 153.617 173.285 152.285 173.285C150.953 173.285 149.877 172.164 149.877 170.776C149.877 169.387 150.953 168.266 152.285 168.266C153.617 168.293 154.693 169.414 154.693 170.776Z" fill="#5956E9"/>
<path d="M171.347 170.776C171.347 172.164 170.271 173.285 168.938 173.285C167.606 173.285 166.53 172.164 166.53 170.776C166.53 169.387 167.606 168.266 168.938 168.266C170.271 168.293 171.347 169.414 171.347 170.776Z" fill="#5956E9"/>
<path d="M188 170.776C188 172.164 186.924 173.285 185.592 173.285C184.259 173.285 183.183 172.164 183.183 170.776C183.183 169.387 184.259 168.266 185.592 168.266C186.924 168.293 188 169.414 188 170.776Z" fill="#5956E9"/>
<path d="M4.81657 189.49C4.81657 190.878 3.74053 192 2.40829 192C1.07604 192 0 190.878 0 189.49C0 188.102 1.07604 186.981 2.40829 186.981C3.74053 186.981 4.81657 188.102 4.81657 189.49Z" fill="#5956E9"/>
<path d="M21.4699 189.49C21.4699 190.878 20.3938 192 19.0616 192C17.7294 192 16.6533 190.878 16.6533 189.49C16.6533 188.102 17.7294 186.981 19.0616 186.981C20.3938 186.981 21.4699 188.102 21.4699 189.49Z" fill="#5956E9"/>
<path d="M38.1232 189.49C38.1232 190.878 37.0472 192 35.7149 192C34.3827 192 33.3066 190.878 33.3066 189.49C33.3066 188.102 34.3827 186.981 35.7149 186.981C37.0472 186.981 38.1232 188.102 38.1232 189.49Z" fill="#5956E9"/>
<path d="M54.7748 189.49C54.7748 190.878 53.6988 192 52.3665 192C51.0343 192 49.9583 190.878 49.9583 189.49C49.9583 188.102 51.0343 186.981 52.3665 186.981C53.6988 186.981 54.7748 188.102 54.7748 189.49Z" fill="#5956E9"/>
<path d="M71.4281 189.49C71.4281 190.878 70.3521 192 69.0199 192C67.6876 192 66.6116 190.878 66.6116 189.49C66.6116 188.102 67.6876 186.981 69.0199 186.981C70.3521 186.981 71.4281 188.102 71.4281 189.49Z" fill="#5956E9"/>
<path d="M88.0815 189.49C88.0815 190.878 87.0054 192 85.6732 192C84.3409 192 83.2649 190.878 83.2649 189.49C83.2649 188.102 84.3409 186.981 85.6732 186.981C87.0054 186.981 88.0815 188.102 88.0815 189.49Z" fill="#5956E9"/>
<path d="M104.735 189.49C104.735 190.878 103.659 192 102.326 192C100.994 192 99.9182 190.878 99.9182 189.49C99.9182 188.102 100.994 186.981 102.326 186.981C103.659 186.981 104.735 188.102 104.735 189.49Z" fill="#5956E9"/>
<path d="M121.388 189.49C121.388 190.878 120.312 192 118.98 192C117.648 192 116.572 190.878 116.572 189.49C116.572 188.102 117.648 186.981 118.98 186.981C120.312 186.981 121.388 188.102 121.388 189.49Z" fill="#5956E9"/>
<path d="M138.041 189.49C138.041 190.878 136.965 192 135.633 192C134.301 192 133.225 190.878 133.225 189.49C133.225 188.102 134.301 186.981 135.633 186.981C136.965 186.981 138.041 188.102 138.041 189.49Z" fill="#5956E9"/>
<path d="M154.693 189.49C154.693 190.878 153.617 192 152.285 192C150.953 192 149.877 190.878 149.877 189.49C149.877 188.102 150.953 186.981 152.285 186.981C153.617 186.981 154.693 188.102 154.693 189.49Z" fill="#5956E9"/>
<path d="M171.347 189.49C171.347 190.878 170.271 192 168.938 192C167.606 192 166.53 190.878 166.53 189.49C166.53 188.102 167.606 186.981 168.938 186.981C170.271 186.981 171.347 188.102 171.347 189.49Z" fill="#5956E9"/>
<path d="M188 189.49C188 190.878 186.924 192 185.592 192C184.259 192 183.183 190.878 183.183 189.49C183.183 188.102 184.259 186.981 185.592 186.981C186.924 186.981 188 188.102 188 189.49Z" fill="#5956E9"/>
</g>
<defs>
<clipPath id="clip0_116_44">
<rect width="188" height="192" fill="white"/>
</clipPath>
</defs>
</svg>
